<mxfile host="app.diagrams.net" modified="2024-05-16T13:09:29.917Z" agent="Mozilla/5.0 (Windows NT 10.0; Win64; x64) AppleWebKit/537.36 (KHTML, like Gecko) Chrome/124.0.0.0 Safari/537.36 Edg/124.0.0.0" etag="JG1kwGFExpgDHBXZHPt9" version="24.4.2" type="github">
  <diagram name="Page-1" id="lk5nGScyhIN6_fyXBToY">
    <mxGraphModel dx="872" dy="481" grid="1" gridSize="10" guides="1" tooltips="1" connect="1" arrows="1" fold="1" page="1" pageScale="1" pageWidth="850" pageHeight="1100" math="0" shadow="0">
      <root>
        <mxCell id="0" />
        <mxCell id="1" parent="0" />
        <mxCell id="rFAlVLBieGXEdtf4wcXV-23" value="1-M" style="edgeStyle=orthogonalEdgeStyle;rounded=0;orthogonalLoop=1;jettySize=auto;html=1;exitX=1;exitY=0.25;exitDx=0;exitDy=0;entryX=0;entryY=0.25;entryDx=0;entryDy=0;" edge="1" parent="1" source="rFAlVLBieGXEdtf4wcXV-3" target="rFAlVLBieGXEdtf4wcXV-7">
          <mxGeometry relative="1" as="geometry">
            <Array as="points">
              <mxPoint x="195" y="68" />
              <mxPoint x="195" y="65" />
            </Array>
          </mxGeometry>
        </mxCell>
        <mxCell id="rFAlVLBieGXEdtf4wcXV-3" value="BOOK&lt;div&gt;&lt;br&gt;&lt;/div&gt;&lt;div&gt;Book ID&lt;/div&gt;&lt;div&gt;&lt;br&gt;&lt;/div&gt;&lt;div&gt;Title&lt;/div&gt;&lt;div&gt;&lt;br&gt;&lt;/div&gt;&lt;div&gt;Publcation Year&lt;/div&gt;&lt;div&gt;&lt;br&gt;&lt;/div&gt;" style="rounded=0;whiteSpace=wrap;html=1;" vertex="1" parent="1">
          <mxGeometry y="40" width="130" height="110" as="geometry" />
        </mxCell>
        <mxCell id="rFAlVLBieGXEdtf4wcXV-25" value="M-M" style="edgeStyle=orthogonalEdgeStyle;rounded=0;orthogonalLoop=1;jettySize=auto;html=1;exitX=1;exitY=0.25;exitDx=0;exitDy=0;entryX=0;entryY=0.25;entryDx=0;entryDy=0;" edge="1" parent="1" source="rFAlVLBieGXEdtf4wcXV-5" target="rFAlVLBieGXEdtf4wcXV-6">
          <mxGeometry relative="1" as="geometry">
            <Array as="points">
              <mxPoint x="200" y="223" />
              <mxPoint x="200" y="228" />
            </Array>
          </mxGeometry>
        </mxCell>
        <mxCell id="rFAlVLBieGXEdtf4wcXV-5" value="LIBRARY MEMBER&lt;div&gt;&lt;br&gt;&lt;div&gt;Member ID&lt;/div&gt;&lt;div&gt;&lt;br&gt;&lt;/div&gt;&lt;div&gt;Name&lt;/div&gt;&lt;/div&gt;" style="rounded=0;whiteSpace=wrap;html=1;" vertex="1" parent="1">
          <mxGeometry y="200" width="130" height="90" as="geometry" />
        </mxCell>
        <mxCell id="rFAlVLBieGXEdtf4wcXV-6" value="BORROWING&lt;div&gt;&lt;br&gt;&lt;/div&gt;&lt;div&gt;Borrowing ID&lt;/div&gt;&lt;div&gt;&lt;br&gt;&lt;/div&gt;&lt;div&gt;Due Date&lt;/div&gt;&lt;div&gt;&lt;br&gt;&lt;/div&gt;&lt;div&gt;Return Date&lt;/div&gt;&lt;div&gt;&lt;br&gt;&lt;/div&gt;" style="rounded=0;whiteSpace=wrap;html=1;" vertex="1" parent="1">
          <mxGeometry x="260" y="200" width="200" height="110" as="geometry" />
        </mxCell>
        <mxCell id="rFAlVLBieGXEdtf4wcXV-24" value="1-M" style="edgeStyle=orthogonalEdgeStyle;rounded=0;orthogonalLoop=1;jettySize=auto;html=1;exitX=0;exitY=0.75;exitDx=0;exitDy=0;entryX=1;entryY=0.75;entryDx=0;entryDy=0;" edge="1" parent="1" source="rFAlVLBieGXEdtf4wcXV-7" target="rFAlVLBieGXEdtf4wcXV-3">
          <mxGeometry relative="1" as="geometry" />
        </mxCell>
        <mxCell id="rFAlVLBieGXEdtf4wcXV-7" value="AUTHOR&lt;div&gt;&lt;br&gt;&lt;/div&gt;&lt;div&gt;Author ID&lt;/div&gt;&lt;div&gt;&lt;br&gt;&lt;/div&gt;&lt;div&gt;Name&lt;/div&gt;&lt;div&gt;&lt;br&gt;&lt;/div&gt;" style="rounded=0;whiteSpace=wrap;html=1;" vertex="1" parent="1">
          <mxGeometry x="260" y="40" width="140" height="100" as="geometry" />
        </mxCell>
        <mxCell id="rFAlVLBieGXEdtf4wcXV-9" style="edgeStyle=orthogonalEdgeStyle;rounded=0;orthogonalLoop=1;jettySize=auto;html=1;exitX=1;exitY=1;exitDx=0;exitDy=0;entryX=0.995;entryY=0.945;entryDx=0;entryDy=0;entryPerimeter=0;" edge="1" parent="1" source="rFAlVLBieGXEdtf4wcXV-6" target="rFAlVLBieGXEdtf4wcXV-6">
          <mxGeometry relative="1" as="geometry" />
        </mxCell>
        <mxCell id="rFAlVLBieGXEdtf4wcXV-26" value="M-M" style="edgeStyle=orthogonalEdgeStyle;rounded=0;orthogonalLoop=1;jettySize=auto;html=1;exitX=0;exitY=0.5;exitDx=0;exitDy=0;entryX=1.015;entryY=0.622;entryDx=0;entryDy=0;entryPerimeter=0;" edge="1" parent="1" source="rFAlVLBieGXEdtf4wcXV-6" target="rFAlVLBieGXEdtf4wcXV-5">
          <mxGeometry relative="1" as="geometry" />
        </mxCell>
      </root>
    </mxGraphModel>
  </diagram>
</mxfile>
